:SAMPLES-PER-SECOND 30
:FULLY-SPECIFIED
:DEGREES
710
root  69.4889 40.1583 -6.44808 -15.9146 -79.3743 15.166
RightUpLeg  -4.96493 -16.0945 -12.1532
RightLeg  11.0011 -14.9389 2.35195
RightFoot  0.241763 -0.183606 1.82587
RightToes  -1.16417e-010 0 -3.6325e-017
Spine  13.2383 -1.02626 7.58748
Spine1  4.01532 0.598269 -4.00805
HEad  -17.1012 -1.57558 -3.51802
LeftShoulder1  8.85845 -16.6693 -37.7549
LeftArm  -27.6348 -61.0511 -26.7252
LeftForeArm  59.6332 -53.7928 -10.5918
LeftHand  -0.244104 0.0205437 5.32207
RightShoulder  5.66537 12.5132 29.3829
RightArm  -16.9636 47.1478 31.5708
RightForeArm  21.6171 63.0083 20.4447
RightHand  -1.0267 -0.653963 -24.9407
LeftUpLeg  -4.62881 5.5097 5.41623
LeftLeg  0.462695 10.3853 -3.68948
LeftFoot  7.02254 0.465191 -3.14255
LeftToes  -2.09216e-011 1.96776e-011 -5.83545e-012
711
root  69.451 40.1574 -6.34643 -15.9609 -78.8063 14.9213
RightUpLeg  -4.41964 -16.3735 -12.6014
RightLeg  11.08 -15.0634 2.24852
RightFoot  0.167989 -0.21649 2.15866
RightToes  -1.16417e-010 0 -3.6325e-017
Spine  12.6743 -1.10754 6.7933
Spine1  4.93405 0.401395 -3.82513
HEad  -16.6404 -2.10357 -3.0123
LeftShoulder1  9.05669 -16.4366 -39.2003
LeftArm  -22.5422 -57.3882 -25.1007
LeftForeArm  53.6007 -49.0497 -9.00347
LeftHand  -0.244104 0.0205437 5.32207
RightShoulder  6.13387 12.7531 31.776
RightArm  -13.8815 41.3125 31.1246
RightForeArm  20.2055 63.4887 21.1704
RightHand  -1.21496 0.14596 -25.2654
LeftUpLeg  -4.42296 5.3279 5.10591
LeftLeg  0.668788 10.0396 -3.62831
LeftFoot  6.86087 0.440095 -3.0081
LeftToes  -2.09216e-011 1.96776e-011 -5.83545e-012
712
root  69.4008 40.1541 -6.21313 -16.2768 -78.4305 14.9377
RightUpLeg  -3.86084 -16.506 -13.0698
RightLeg  11.1013 -15.1419 2.14882
RightFoot  0.11699 -0.252529 2.5237
RightToes  -1.16417e-010 0 -3.6325e-017
Spine  12.1086 -1.13738 6.06827
Spine1  5.69999 0.306967 -3.81606
HEad  -16.0952 -2.57128 -2.15814
LeftShoulder1  9.33919 -16.2999 -40.8488
LeftArm  -16.486 -52.8945 -23.7931
LeftForeArm  48.5549 -43.5797 -7.43704
LeftHand  -0.244104 0.0205437 5.32207
RightShoulder  6.57307 12.8059 34.3382
RightArm  -10.6312 35.1036 30.903
RightForeArm  17.6406 60.759 18.8569
RightHand  -1.00602 -0.624155 -24.2865
LeftUpLeg  -4.21657 5.21637 4.81601
LeftLeg  1.06411 9.77988 -3.60398
LeftFoot  6.49245 0.407414 -2.84858
LeftToes  -2.09216e-011 1.96776e-011 -5.83545e-012
713
root  69.3267 40.1554 -6.04414 -16.837 -78.317 15.1721
RightUpLeg  -3.20764 -16.513 -13.5416
RightLeg  10.9283 -15.0784 2.11336
RightFoot  0.138062 -0.290519 2.89812
RightToes  -1.16417e-010 0 -3.6325e-017
Spine  11.4392 -1.03641 5.55823
Spine1  6.47924 0.428882 -4.04548
HEad  -15.3784 -3.23571 -1.04555
LeftShoulder1  9.6631 -16.2978 -42.3838
LeftArm  -8.68647 -47.7475 -23.1558
LeftForeArm  44.0016 -36.6888 -5.71066
LeftHand  -0.244104 0.0205437 5.32207
RightShoulder  6.91723 12.8448 36.3118
RightArm  -7.55642 28.622 31.1412
RightForeArm  14.4161 54.5129 14.7446
RightHand  -0.825764 -1.28339 -23.1527
LeftUpLeg  -3.89828 5.15614 4.542
LeftLeg  1.50761 9.73264 -3.57614
LeftFoot  5.98061 0.372622 -2.68535
LeftToes  -2.09216e-011 1.96776e-011 -5.83545e-012
714
root  69.2389 40.162 -5.83885 -17.5003 -78.2881 15.5707
RightUpLeg  -2.51989 -16.4077 -14.0646
RightLeg  10.5572 -15.0238 2.15509
RightFoot  0.250185 -0.333225 3.29777
RightToes  -1.16417e-010 0 -3.6325e-017
Spine  10.8065 -0.891252 5.04737
Spine1  7.04526 0.585923 -4.23513
HEad  -14.6118 -3.90262 0.00435595
LeftShoulder1  9.9784 -16.3356 -43.7673
LeftArm  1.07148 -41.9698 -23.152
LeftForeArm  37.2303 -27.9737 -4.15034
LeftHand  -0.244104 0.0205437 5.32207
RightShoulder  7.12834 12.8033 37.6729
RightArm  -3.79291 22.7636 31.9732
RightForeArm  10.9273 43.5724 9.88497
RightHand  -0.804665 -1.15152 -21.9176
LeftUpLeg  -3.56758 5.02375 4.18275
LeftLeg  1.88688 9.87273 -3.50542
LeftFoot  5.45251 0.337794 -2.5132
LeftToes  -2.09216e-011 1.96776e-011 -5.83545e-012
715
root  69.1569 40.17 -5.60062 -18.037 -78.2136 15.9781
RightUpLeg  -1.89457 -16.1753 -14.6337
RightLeg  10.0335 -15.1328 2.26331
RightFoot  0.467114 -0.382065 3.72287
RightToes  -1.16417e-010 0 -3.6325e-017
Spine  10.3026 -0.85395 4.3208
Spine1  7.43407 0.530262 -4.09113
HEad  -14.0699 -4.07472 0.663632
LeftShoulder1  10.2857 -16.3694 -45.1011
LeftArm  5.97646 -35.5487 -22.9152
LeftForeArm  33.158 -17.6944 -5.18419
LeftHand  -0.244104 0.0205437 5.32207
RightShoulder  7.28046 12.7173 38.7964
RightArm  0.111613 18.5551 32.9546
RightForeArm  8.44032 27.9068 6.33594
RightHand  -0.75903 -0.983569 -19.8417
LeftUpLeg  -3.35386 4.7982 3.72145
LeftLeg  2.17723 10.0756 -3.42318
LeftFoot  4.97591 0.290906 -2.24003
LeftToes  -2.09216e-011 1.96776e-011 -5.83545e-012
716
root  69.0739 40.1789 -5.33386 -18.5884 -78.3211 16.5444
RightUpLeg  -1.42244 -15.8484 -15.1406
RightLeg  9.3773 -15.1778 2.39443
RightFoot  0.79024 -0.438198 4.17133
RightToes  -1.16417e-010 0 -3.6325e-017
Spine  9.90017 -0.871877 3.6458
Spine1  7.8543 0.413091 -3.90231
HEad  -13.9181 -3.69538 0.881528
LeftShoulder1  10.6573 -16.4582 -46.5722
LeftArm  -3.70474 -28.0546 -21.5536
LeftForeArm  40.3957 -6.68178 -9.40842
LeftHand  -0.244104 0.0205437 5.32207
RightShoulder  7.50154 12.7945 39.8852
RightArm  -2.788 15.0932 33.2681
RightForeArm  12.3495 10.2961 6.37913
RightHand  -0.45038 -2.32117 -16.4929
LeftUpLeg  -3.21823 4.67695 3.30303
LeftLeg  2.39274 10.3435 -3.46396
LeftFoot  4.5073 0.227919 -1.83402
LeftToes  -2.09216e-011 1.96776e-011 -5.83545e-012
717
root  68.9683 40.1914 -5.03941 -19.6752 -78.8985 17.8041
RightUpLeg  -1.20759 -15.4867 -15.5103
RightLeg  8.61999 -14.8473 2.47488
RightFoot  1.18771 -0.502242 4.64558
RightToes  -1.16417e-010 0 -3.6325e-017
Spine  9.63417 -0.721316 3.44422
Spine1  8.23082 0.640216 -4.23626
HEad  -14.3462 -3.38 0.886327
LeftShoulder1  11.0571 -16.4972 -48.2604
LeftArm  -5.39644 -18.664 -20.4826
LeftForeArm  38.5792 -0.0871962 -8.67943
LeftHand  -0.244104 0.0205437 5.32207
RightShoulder  7.74427 12.9438 40.8871
RightArm  -11.5854 9.53786 32.9078
RightForeArm  18.3599 -2.40527 5.08774
RightHand  -0.0766407 -4.80364 -13.8604
LeftUpLeg  -3.0518 4.793 3.01275
LeftLeg  2.47378 10.8443 -3.72135
LeftFoot  3.98506 0.168768 -1.43433
LeftToes  -2.09216e-011 1.96776e-011 -5.83545e-012
718
root  68.8461 40.2028 -4.71798 -21.5248 -79.7969 20.0168
RightUpLeg  -1.30515 -15.1623 -15.8104
RightLeg  7.86874 -14.2187 2.4706
RightFoot  1.60579 -0.568875 5.10623
RightToes  -1.16417e-010 0 -3.6325e-017
Spine  9.57998 -0.385817 3.55503
Spine1  8.38732 1.19802 -5.01418
HEad  -15.4948 -3.42388 1.01712
LeftShoulder1  11.244 -16.2012 -49.8228
LeftArm  -5.61794 -7.55477 -19.3772
LeftForeArm  37.2863 1.44835 -7.64854
LeftHand  -0.244104 0.0205437 5.32207
RightShoulder  7.78044 12.7454 41.6381
RightArm  -16.4258 0.39423 32.6799
RightForeArm  16.9109 -4.70474 2.71341
RightHand  -0.0599594 -5.09951 -14.9442
LeftUpLeg  -2.89808 4.967 2.72126
LeftLeg  2.36686 11.6518 -4.0983
LeftFoot  3.39594 0.133857 -1.19503
LeftToes  -2.09216e-011 1.96776e-011 -5.83545e-012
719
root  68.7379 40.2074 -4.38274 -23.6159 -80.5315 22.6431
RightUpLeg  -1.60835 -14.9562 -16.1652
RightLeg  7.18528 -13.637 2.43325
RightFoot  2.02247 -0.633174 5.51792
RightToes  -1.16417e-010 0 -3.6325e-017
Spine  9.61204 -0.16668 3.2619
Spine1  8.42646 1.5279 -5.49072
HEad  -16.9962 -3.39927 1.30371
LeftShoulder1  11.0355 -15.5076 -50.673
LeftArm  -4.49086 4.3786 -18.546
LeftForeArm  36.6741 -0.507153 -7.26161
LeftHand  -0.244104 0.0205437 5.32207
RightShoulder  7.5055 12.0794 41.901
RightArm  -17.702 -10.3309 32.4819
RightForeArm  12.152 -0.0220222 2.76126
RightHand  -0.368052 -2.88646 -16.9924
LeftUpLeg  -2.89105 4.9566 2.26072
LeftLeg  2.08514 12.5429 -4.43185
LeftFoot  2.81087 0.118244 -1.09024
LeftToes  -2.09216e-011 1.96776e-011 -5.83545e-012
720
root  68.6586 40.1995 -4.0537 -24.9776 -80.888 24.5884
RightUpLeg  -1.95048 -14.8556 -16.547
RightLeg  6.63134 -13.2892 2.35889
RightFoot  2.38096 -0.704669 5.98574
RightToes  -1.16417e-010 0 -3.6325e-017
Spine  9.42746 -0.28332 2.27021
Spine1  8.5941 1.25787 -5.21022
HEad  -17.8416 -2.81178 1.49037
LeftShoulder1  10.5553 -14.7144 -50.5775
LeftArm  -2.27866 16.2716 -18.5108
LeftForeArm  35.4678 -3.20683 -7.46322
LeftHand  -0.244104 0.0205437 5.32207
RightShoulder  7.06789 11.3372 41.3964
RightArm  -14.9026 -19.6496 31.9807
RightForeArm  7.90195 5.17256 4.47742
RightHand  -0.436518 -2.21467 -15.4308
LeftUpLeg  -3.15525 4.81355 1.71025
LeftLeg  1.99731 13.2007 -4.63768
LeftFoot  2.19774 0.105884 -1.00429
LeftToes  -2.09216e-011 1.96776e-011 -5.83545e-012
